<?xml version="1.0" standalone="no"?>
<svg xmlns:xlink="http://www.w3.org/1999/xlink" id="wave" style="transform:rotate(180deg); transition: 0.3s" viewBox="0 0 1440 350" version="1.1" xmlns="http://www.w3.org/2000/svg"><defs><linearGradient id="sw-gradient-0" x1="0" x2="0" y1="1" y2="0"><stop stop-color="rgba(112, 142, 192, 1)" offset="0%"/><stop stop-color="rgba(81.419, 120.164, 184.74, 1)" offset="100%"/></linearGradient></defs><path style="transform:translate(0, 0px); opacity:1" fill="url(#sw-gradient-0)" d="M0,175L80,175C160,175,320,175,480,192.5C640,210,800,245,960,227.5C1120,210,1280,140,1440,93.3C1600,47,1760,23,1920,64.2C2080,105,2240,210,2400,215.8C2560,222,2720,128,2880,128.3C3040,128,3200,222,3360,227.5C3520,233,3680,152,3840,128.3C4000,105,4160,140,4320,151.7C4480,163,4640,152,4800,145.8C4960,140,5120,140,5280,145.8C5440,152,5600,163,5760,157.5C5920,152,6080,128,6240,110.8C6400,93,6560,82,6720,75.8C6880,70,7040,70,7200,87.5C7360,105,7520,140,7680,163.3C7840,187,8000,198,8160,186.7C8320,175,8480,140,8640,134.2C8800,128,8960,152,9120,186.7C9280,222,9440,268,9600,291.7C9760,315,9920,315,10080,297.5C10240,280,10400,245,10560,210C10720,175,10880,140,11040,157.5C11200,175,11360,245,11440,280L11520,315L11520,350L11440,350C11360,350,11200,350,11040,350C10880,350,10720,350,10560,350C10400,350,10240,350,10080,350C9920,350,9760,350,9600,350C9440,350,9280,350,9120,350C8960,350,8800,350,8640,350C8480,350,8320,350,8160,350C8000,350,7840,350,7680,350C7520,350,7360,350,7200,350C7040,350,6880,350,6720,350C6560,350,6400,350,6240,350C6080,350,5920,350,5760,350C5600,350,5440,350,5280,350C5120,350,4960,350,4800,350C4640,350,4480,350,4320,350C4160,350,4000,350,3840,350C3680,350,3520,350,3360,350C3200,350,3040,350,2880,350C2720,350,2560,350,2400,350C2240,350,2080,350,1920,350C1760,350,1600,350,1440,350C1280,350,1120,350,960,350C800,350,640,350,480,350C320,350,160,350,80,350L0,350Z"/></svg>